<svg role="img" class="sw-amiga-logo" data-logo-brand="inditex-tech" fill="none" xmlns="http://www.w3.org/2000/svg" width="100%" height="100%" viewBox="0 0 172 23" preserveAspectRatio="xMinYMid meet"><g><path d="M103.635 1.24321H119.896V2.90958H112.742V21.7567H110.789V2.90958H103.635V1.24321Z" fill="black"></path><path d="M120.95 1.24321H135.114V2.90958H122.903V10.322H134.338V11.9884H122.903V20.0904H135.257V21.7567H120.95V1.24321Z" fill="black"></path><path d="M145.824 0.812256C149.846 0.812256 153.552 3.28307 154.069 7.44899H152.116C151.426 4.31737 148.84 2.47862 145.824 2.47862C140.451 2.47862 138.095 6.93184 138.095 11.5C138.095 15.8957 140.336 20.5213 145.824 20.5213C149.386 20.5213 152.001 17.8494 152.403 13.9421H154.357C153.811 19.1135 150.507 22.1877 145.824 22.1877C139.445 22.1877 136.141 17.2461 136.141 11.5C136.141 5.92628 139.302 0.812256 145.824 0.812256Z" fill="black"></path><path d="M155.911 1.24321H157.865V10.1496H170.046V1.24321H172V21.7567H170.046V11.816H157.865V21.7567H155.911V1.24321Z" fill="black"></path><path d="M3.74192 1.23511H0V21.7569H3.74381L3.74192 1.23511Z" fill="black"></path><path d="M23.6266 1.23511H19.8828V15.4595L9.35668 1.23511H5.61382V21.7569H9.35668V7.5315L19.8847 21.7569H23.6285L23.6266 1.23511Z" fill="black"></path><path d="M33.4532 1.23511H25.4985V21.7569H33.4532C36.1665 21.754 38.7673 20.6716 40.6865 18.7474C42.6038 16.8241 43.6834 14.2171 43.6872 11.4974C43.6834 8.77771 42.6047 6.16976 40.6865 4.24647C38.7683 2.32128 36.1665 1.23795 33.4532 1.23511ZM39.4527 13.9841C39.1266 14.7739 38.6482 15.4917 38.045 16.0959C37.4419 16.7 36.7262 17.1792 35.9377 17.505C35.1493 17.8307 34.305 17.9974 33.4532 17.9955H29.2424V4.98131H33.4532C34.306 4.97942 35.1511 5.14609 35.9406 5.47279C36.729 5.79949 37.4456 6.27866 38.0488 6.88377C38.652 7.48888 39.1304 8.20763 39.4556 8.99835C39.7808 9.78907 39.9481 10.6366 39.9462 11.4927C39.9462 12.3478 39.7789 13.1944 39.4527 13.9841Z" fill="black"></path><path d="M48.8312 1.23511H45.0912V21.7569H48.834L48.8312 1.23511Z" fill="black"></path><path d="M67.0794 1.23511H50.7021V4.98984H57.0241V21.7569H60.7679V4.98131H67.0851L67.0794 1.23511Z" fill="black"></path><path d="M83.157 17.9955H72.6885V13.3696H83.157V9.61483H72.6885V4.98131H83.157V1.23511H68.9513V21.7569H83.157V17.9955Z" fill="black"></path><path d="M95.7791 11.308L102.441 1.23511H97.7966L93.5016 7.90839L89.2047 1.23511H84.56L91.2223 11.3165L84.3766 21.7559H89.0516L93.4931 14.7142L97.9327 21.7559H102.609L95.7791 11.308Z" fill="black"></path></g></svg>